<?xml version="1.0" standalone="no"?><!DOCTYPE svg PUBLIC "-//W3C//DTD SVG 1.1//EN" "http://www.w3.org/Graphics/SVG/1.1/DTD/svg11.dtd"><svg t="1712816734178" class="icon" viewBox="0 0 1024 1024" version="1.1" xmlns="http://www.w3.org/2000/svg" p-id="5352" xmlns:xlink="http://www.w3.org/1999/xlink" width="200" height="200"><path d="M157.54752 643.09248c-7.1424 35.5328 14.14656 120.54528 148.82816 120.54528 82.93888 0 162.7904-50.41152 227.76832-135.00928-92.52864-45.07136-169.61536-67.09248-255.6416-67.09248-74.87488 0-113.90464 46.16704-120.95488 81.55648z" fill="#1678FF" p-id="5353"></path><path d="M972.75392 682.13248H972.8V174.08c0-67.8656-55.0144-122.88-122.88-122.88H174.08c-67.8656 0-122.88 55.0144-122.88 122.88v675.84c0 67.8656 55.0144 122.88 122.88 122.88h675.84c67.8656 0 122.88-55.0144 122.88-122.88v-21.85728l-253.4656-111.28832c-39.2704-17.65888-76.47232-34.70336-106.07616-48.8448-80.73216 97.82784-165.32992 156.53888-292.78208 156.53888s-212.5568-78.52544-202.32704-174.6432c6.72768-63.03744 49.9968-166.1184 237.85472-148.46976 99.06688 9.30816 144.3584 27.79136 225.13664 54.46656 20.87424-38.33856 38.2464-80.50176 51.42528-125.3376H274.44736v-35.4816h177.21344V331.22816H235.50976V292.1984h216.10496V200.2688s1.93536-14.37696 17.83296-14.37696h88.60672V292.1984h230.38976v39.07584h-230.38976V394.9568h187.95008a725.6576 725.6576 0 0 1-76.34432 191.41632c54.59968 19.8144 303.09376 95.75936 303.09376 95.75936z" fill="#1678FF" p-id="5354"></path></svg>