<?xml version="1.0" standalone="no"?><!DOCTYPE svg PUBLIC "-//W3C//DTD SVG 1.1//EN" "http://www.w3.org/Graphics/SVG/1.1/DTD/svg11.dtd"><svg t="1712816586941" class="icon" viewBox="0 0 1024 1024" version="1.1" xmlns="http://www.w3.org/2000/svg" p-id="3369" xmlns:xlink="http://www.w3.org/1999/xlink" width="200" height="200"><path d="M972.8 849.92c0 67.8656-55.0144 122.88-122.88 122.88H174.08c-67.8656 0-122.88-55.0144-122.88-122.88V174.08c0-67.8656 55.0144-122.88 122.88-122.88h675.84c67.8656 0 122.88 55.0144 122.88 122.88v675.84z" fill="#00B51D" p-id="3370"></path><path d="M803.18464 204.8H220.81536a10.78272 10.78272 0 0 0-10.78272 10.78272v43.136c0 5.95456 4.82816 10.78272 10.78272 10.78272h582.36928a10.78272 10.78272 0 0 0 10.78272-10.78272v-43.136A10.78272 10.78272 0 0 0 803.18464 204.8zM803.18464 754.48832h-148.83328l44.48768-140.71808h55.20896a10.78272 10.78272 0 0 0 10.78272-10.78272V341.76a10.7776 10.7776 0 0 0-10.78272-10.78272h-484.096a10.78272 10.78272 0 0 0-10.78272 10.78272v261.22752c0 5.95456 4.82304 10.78272 10.78272 10.78272h341.42208l-44.4928 140.71808h-123.0336l-32.62464-103.17312c-1.87904-5.95968-8.23296-10.78272-14.18752-10.78272H331.11552c-5.95456 0-9.25696 4.82304-7.36768 10.78272l32.61952 103.17312H220.81536a10.78272 10.78272 0 0 0-10.78272 10.78272v43.14112c0 5.95456 4.82816 10.78272 10.78272 10.78272h582.36928a10.78272 10.78272 0 0 0 10.78272-10.78272v-43.14112a10.78272 10.78272 0 0 0-10.78272-10.78272z m-441.56928-219.20768V409.45664c0-5.95456 4.82304-10.78272 10.78272-10.78272h279.19872c5.95456 0 10.78272 4.83328 10.78272 10.78272v125.824a10.78272 10.78272 0 0 1-10.78272 10.78272H372.39808a10.78272 10.78272 0 0 1-10.78272-10.78272z" fill="#FFFFFF" p-id="3371"></path></svg>