<?xml version="1.0" standalone="no"?><!DOCTYPE svg PUBLIC "-//W3C//DTD SVG 1.1//EN" "http://www.w3.org/Graphics/SVG/1.1/DTD/svg11.dtd"><svg t="1712816687284" class="icon" viewBox="0 0 1024 1024" version="1.1" xmlns="http://www.w3.org/2000/svg" p-id="4740" xmlns:xlink="http://www.w3.org/1999/xlink" width="200" height="200"><path d="M849.92 51.2H174.08c-67.8656 0-122.88 55.0144-122.88 122.88v675.84c0 67.8656 55.0144 122.88 122.88 122.88h675.84c67.8656 0 122.88-55.0144 122.88-122.88V174.08c0-67.8656-55.0144-122.88-122.88-122.88z m-154.45504 709.9136c-59.61728 43.60704-126.41792 63.01696-199.90528 57.02656-126.12096-10.22464-213.13024-78.27456-263.21408-190.82752-51.98336-116.84352-18.75968-291.25632 119.93088-372.92544 41.0624-24.19712 84.31616-41.61024 131.86048-47.44704 67.90144-8.33024 130.21184 8.02816 188.928 41.9072 53.32992 30.73024 93.7472 73.1392 120.63232 128.36352 8.9856 18.4576 6.93248 26.59328-10.82368 36.86912a99583.12448 99583.12448 0 0 1-255.52896 147.62496c-19.26144 11.07456-39.40864 16.36352-58.81856 1.14688-29.03552-22.79424-26.83904-58.12224 4.74112-77.33248 35.07712-21.30432 70.59456-41.8048 105.96352-62.55616 24.54528-14.37184 49.29024-28.3904 73.69216-43.00288 17.3056-10.37824 17.60256-16.11264 2.68288-29.08672-73.63584-63.80544-181.888-69.09952-261.61664-12.7744-67.65056 47.8464-104.01792 136.69888-86.10816 213.38112 21.30432 91.14624 76.38016 149.41696 169.37472 168.82688 13.12256 2.74432 26.89536 2.14016 40.36096 3.09248 33.37728 0.90624 64.80384-6.48704 94.94528-20.4032 46.34112-21.44768 62.75584-15.5648 89.69728 36.61824 4.73088 9.23648 0.94208 15.872-6.79424 21.49888z m112.10752-154.65472c-15.22176 12.17536-31.68256 22.85056-48.39936 32.87552-2.59072 1.55136-11.22304-2.09408-13.4144-5.58592-12.27264-19.75808-23.94624-40.00256-34.42688-60.75904-1.8432-3.69664 1.0496-13.42464 4.68992-15.7184 19.70688-12.42624 40.11008-23.69536 60.76928-34.51904 3.24096-1.69984 11.4176-0.55296 12.96896 1.94048 11.66848 19.00544 23.94624 38.02112 25.13408 65.36192-1.38752 3.38432-2.33472 12.416-7.3216 16.40448z" fill="#0192FF" p-id="4741"></path></svg>