<?xml version="1.0" standalone="no"?><!DOCTYPE svg PUBLIC "-//W3C//DTD SVG 1.1//EN" "http://www.w3.org/Graphics/SVG/1.1/DTD/svg11.dtd"><svg t="1712814261193" class="icon" viewBox="0 0 1024 1024" version="1.1" xmlns="http://www.w3.org/2000/svg" p-id="1238" xmlns:xlink="http://www.w3.org/1999/xlink" width="200" height="200"><path d="M849.92 51.2H174.08c-67.8656 0-122.88 55.0144-122.88 122.88v675.84c0 67.8656 55.0144 122.88 122.88 122.88h265.1904v-347.56608h-119.552v-127.0272h119.552V413.70112c0-139.9296 68.17792-201.344 184.47872-201.344 55.69536 0 85.17632 4.1216 99.10784 6.00576V329.216H643.5328c-49.36192 0-66.60096 46.79168-66.60096 99.56352v69.43232h144.70656l-19.6352 127.0272h-125.04576V972.8H849.92c67.8656 0 122.88-55.0144 122.88-122.88V174.08c0-67.8656-55.0144-122.88-122.88-122.88z" fill="#039BE5" p-id="1239"></path></svg>