<?xml version="1.0" standalone="no"?><!DOCTYPE svg PUBLIC "-//W3C//DTD SVG 1.1//EN" "http://www.w3.org/Graphics/SVG/1.1/DTD/svg11.dtd"><svg t="1712816574198" class="icon" viewBox="0 0 1024 1024" version="1.1" xmlns="http://www.w3.org/2000/svg" p-id="3218" xmlns:xlink="http://www.w3.org/1999/xlink" width="200" height="200"><path d="M849.92 51.2H174.08c-67.8656 0-122.88 55.0144-122.88 122.88v675.84c0 67.8656 55.0144 122.88 122.88 122.88h675.84c67.8656 0 122.88-55.0144 122.88-122.88V174.08c0-67.8656-55.0144-122.88-122.88-122.88z m-128.62464 693.55008C670.54592 791.65952 601.0624 819.2 518.12352 819.2c-120.00256 0-223.82592-68.84352-274.33984-169.23136a306.6368 306.6368 0 0 1-32.66048-137.92768 306.9696 306.9696 0 0 1 32.66048-138.0096C294.2976 273.64352 398.12608 204.8 518.12352 204.8c82.77504 0 152.18176 30.41792 205.4144 80.0512L635.47904 372.992c-31.86176-30.41792-72.28416-45.952-117.35552-45.952-79.9744 0-147.61984 54.03648-171.87328 126.56128-6.08256 18.41152-9.60512 38.10304-9.60512 58.35776 0 20.25472 3.52256 39.94624 9.60512 58.35776 24.17664 72.60672 91.82208 126.63808 171.79136 126.63808 41.30304 0 76.45184-10.88512 103.9872-29.30176 32.58368-21.77536 54.1952-54.27712 61.32224-92.6976h-165.22752V456.08448h289.22368a356.17792 356.17792 0 0 1 5.52448 62.84288c0.00512 93.57824-33.536 172.34944-91.57632 225.82272z" fill="#ED2524" p-id="3219"></path></svg>