<?xml version="1.0" standalone="no"?><!DOCTYPE svg PUBLIC "-//W3C//DTD SVG 1.1//EN" "http://www.w3.org/Graphics/SVG/1.1/DTD/svg11.dtd"><svg t="1712816626759" class="icon" viewBox="0 0 1024 1024" version="1.1" xmlns="http://www.w3.org/2000/svg" p-id="3980" xmlns:xlink="http://www.w3.org/1999/xlink" width="200" height="200"><path d="M360.32512 612.12672c5.31968 3.21536 11.17696 3.51744 17.09056 2.816 11.1616-1.31072 14.05952-4.66432 14.06464-15.83104 0.01024-29.32736 0-58.65472 0.00512-87.9872l-0.00512-79.14496c0-4.41856 0.1024-8.84736-0.11264-13.25568-0.26624-5.5808-2.4576-8.45312-7.7312-9.92768a35.79904 35.79904 0 0 0-20.97152 0.384c-4.352 1.40288-6.8864 4.56192-7.73632 8.95488-0.40448 2.07872-0.39424 4.25984-0.39424 6.4-0.01536 57.71776-0.01536 115.44064-0.01024 173.15328 0 1.7408-0.01536 3.49184 0.14848 5.2224 0.37376 3.97312 2.18624 7.1168 5.65248 9.216z" fill="#6AC60A" p-id="3981"></path><path d="M849.92 51.2H174.08c-67.8656 0-122.88 55.0144-122.88 122.88v675.84c0 67.8656 55.0144 122.88 122.88 122.88h675.84c67.8656 0 122.88-55.0144 122.88-122.88V174.08c0-67.8656-55.0144-122.88-122.88-122.88zM213.54496 318.79168c7.808-18.24256 20.59776-30.89408 40.22784-36.3008 21.38624-5.89312 43.20768-9.16992 65.12128-12.02688 24.02304-3.13344 48.15872-5.28384 72.32-7.0656 15.74912-1.16224 31.54944-1.62304 47.29856-2.74432 24.21248-1.72544 48.45568-1.46944 72.69376-1.41824 14.46912 0 28.9536-0.36864 43.41248 0.08704 23.14752 0.72192 46.26432 1.96096 69.37088 3.63008 19.62496 1.41824 39.23968 2.92352 58.79808 5.07392 26.75712 2.944 53.36064 6.67136 79.68256 12.61568 28.16512 6.36416 44.16 24.05376 51.05152 51.2256 2.24256 8.8576 3.23072 17.89952 4.11136 26.97216 0.34816 3.58912-0.80384 5.07904-4.61312 5.04832a3558.4 3558.4 0 0 0-49.03936-0.02048c-3.21024 0.02048-4.7616-0.8704-5.23776-4.38272-2.80064-20.32128-13.42464-31.3344-33.66912-34.87232-20.18816-3.52768-40.54016-5.94944-60.91776-8.02816-29.30176-2.99008-58.66496-5.12-88.12544-6.00064-8.832-0.26112-17.66912-0.4096-26.50112-0.5888-14.18752-0.28672-28.40064-0.92672-42.5728-0.52224-18.21184 0.52736-36.43904 0.1024-54.63552 0.7424-50.21184 1.75616-100.21888 5.90336-149.90336 13.53728-4.90496 0.75264-9.73824 1.85344-14.42304 3.52768-14.95552 5.34528-22.04672 16.73216-24.00768 31.81056-0.45568 3.5328-1.77152 4.81792-5.31456 4.79232-16.34816-0.12288-32.69632-0.07168-49.04448-0.03584-2.74944 0.00512-4.82816-0.46592-4.5568-3.93216 1.11104-14.06464 2.8672-28.01664 8.4736-41.12384z m465.99168 313.36448c-0.00512 7.20896-1.16736 8.36096-8.43264 8.36096-13.52704 0.01536-27.0592 0.01536-40.59648 0-7.15264 0-8.97024-1.75616-8.98048-9.0368-0.0512-21.1712-0.6912-42.35776 0.18944-63.49312 0.6912-16.47104-2.8416-31.5904-8.56576-46.83776-14.06464-37.49376-27.29984-75.29984-40.86784-112.97792-2.00192-5.54496-4.00384-11.0848-6.016-16.62976-2.09408-5.80096 0.11776-9.15968 6.36928-9.20064 14.60736-0.09216 29.2096-0.07168 43.81184-0.00512 5.2992 0.02048 6.656 1.04448 8.33024 6.34368 8.52992 27.07968 17.18272 54.12864 24.75008 81.50016 0.2816 1.01888 0.59392 2.02752 1.19296 4.11136 3.72224-12.47232 7.08096-24.01792 10.61376-35.51232a7915.3152 7915.3152 0 0 1 15.6928-50.24256c1.664-5.29408 2.86208-6.19008 8.35584-6.21056 14.336-0.0512 28.672-0.06144 43.00288 0 6.84544 0.0256 8.97536 3.04128 6.64576 9.52832-13.97248 38.95296-27.99616 77.88544-42.0096 116.82304-4.12672 11.47392-8.23808 22.94272-12.416 34.39104-0.94208 2.58048-1.08032 5.21216-1.08032 7.90016 0.0256 27.0592 0.02048 54.12864 0.01024 81.18784z m-136.13056-76.16512c0 25.0624 0.00512 50.11968-0.01024 75.17696 0 7.82848-1.55136 9.34912-9.44128 9.34912-13.53728 0.00512-27.06944 0.01536-40.6016 0-6.79424-0.01024-8.6016-1.77152-8.60672-8.56576-0.02048-40.20736-0.01024-80.40448-0.01024-120.60672v-119.3984c0.00512-8.06912 1.57696-9.64096 9.63072-9.64608 13.12768-0.01024 26.26048-0.01024 39.39328 0 7.99744 0.00512 9.63584 1.6128 9.63584 9.66656 0.01536 54.67136 0.01024 109.34784 0.01024 164.02432zM296.34048 421.2736c-0.06656-15.95392 7.84384-26.56768 20.61824-34.2784 9.76896-5.89824 20.74112-8.8576 31.98976-10.05568 20.992-2.23232 41.97888-2.52416 62.6432 2.91328 8.58112 2.2528 16.93696 4.98688 24.09984 10.58816 9.37472 7.32672 14.4128 16.80384 14.42304 28.70784 0.04608 61.49632 0.09216 122.98752-0.0256 184.48896-0.03072 16.65536-9.89696 26.752-23.81824 33.8176-1.15712 0.58368-2.62656 0.68096-3.54304 2.26304 2.05824 1.65376 4.26496 1.38752 6.36416 1.41312 6.29248 0.06144 12.59008-0.00512 18.88768 0.04096 5.58592 0.03072 7.60832 1.92512 7.71072 7.37792a319.8464 319.8464 0 0 1-0.0256 15.67232c-0.13312 4.51584-2.26816 6.7584-6.76352 6.7328-10.97216-0.06144-21.95456 0.5888-32.91648-0.6912-13.1584-1.536-20.16256-7.4496-22.8864-20.42368-0.86016-4.1216-3.21536-3.69664-6.20032-3.45088-24.30976 2.01216-47.91296-0.70144-70.07744-11.48416-13.50144-6.57408-20.42368-17.47456-20.40832-32.76288 0.0768-60.29312 0.1792-120.58112-0.07168-180.86912z m-91.50976-31.96928c0.04608-4.87936 1.89952-6.90176 6.82496-6.9376a3103.7952 3103.7952 0 0 1 44.2112-0.01024c4.79232 0.03072 6.8608 2.14016 6.89152 6.97344 0.08704 14.8736 0.08704 29.74208 0 44.61568-0.0256 4.80768-2.12992 6.92736-6.91712 6.95296-14.8736 0.09216-29.74208 0.09216-44.61056 0-4.25984-0.0256-6.33344-2.24256-6.38464-6.5792-0.09216-7.63392-0.0256-15.27296-0.03072-22.90688 0-7.3728-0.04608-14.74048 0.01536-22.10816z m-0.02048 174.73536V468.38272c0-7.02464 1.18784-8.23296 8.13056-8.23808 13.93152-0.01536 27.86304-0.01536 41.79968 0 6.67136 0.00512 8.04864 1.34144 8.05376 7.97184 0.0256 27.33056 0.01024 54.66112 0.01024 81.98656l-0.00512 79.98464c0 1.60256 0.04608 3.2256-0.13312 4.8128-0.39936 3.57376-2.34496 5.59104-6.08256 5.59104-15.13984 0.00512-30.27968 0.06656-45.4144-0.03072-4.70528-0.03072-6.33856-2.0224-6.34368-7.296-0.0256-23.04-0.01536-46.08512-0.01536-69.12512z m604.86144 141.19936c-7.76192 17.66912-20.11648 30.35136-39.30112 35.71712-21.22752 5.93408-42.90048 9.2928-64.69632 12.1344-23.36768 3.04128-46.8224 5.21216-70.31296 6.9888-15.33952 1.16224-30.73536 1.72032-46.09536 2.74432-27.67872 1.83808-55.40352 2.26304-83.10784 2.01728-26.76736-0.24576-53.5552-0.50176-80.29696-2.23232-38.20032-2.46784-76.38528-5.22752-114.33472-10.4192-19.23584-2.62656-38.37952-5.7856-57.15456-10.99776-20.56704-5.71392-33.57696-19.20512-41.10336-38.5536-4.85376-12.48256-6.66624-25.61536-7.56736-38.89664-0.18944-2.72384 0.91648-3.99872 3.66592-3.97824 5.76 0.04096 11.52 0.01024 18.70848 0.01024 9.96352-0.56832 21.32992 0.93184 32.7168 0.45056 2.71872-0.10752 3.31264 1.16224 3.67104 3.52256 1.5104 9.97888 4.43392 19.30752 12.60544 26.15296 6.85056 5.7344 15.04768 8.25344 23.53152 9.62048 24.85248 4.02432 49.86368 6.89664 74.93632 9.14944 32.82432 2.95424 65.69984 4.47488 98.65216 5.06368 24.78592 0.44544 49.56672 0.59392 74.3424 0.27648 20.608-0.26624 41.22624-1.11616 61.80352-2.36032 37.69344-2.2784 75.24864-6.17472 112.57856-12.01152 6.784-1.05984 13.28128-3.10784 19.33824-6.46656 11.06432-6.12864 15.25248-16.4864 17.00864-28.12416 0.54784-3.68128 1.6384-4.86912 5.45792-4.85888 16.19968 0.0512 32.40448-0.21504 48.60928-0.47104 3.49696-0.06144 5.28896 0.9728 4.95104 4.81792-1.23392 13.93152-2.92864 27.78624-8.60672 40.704z m9.51296-73.28256c0 6.90176-1.69472 8.55552-8.53504 8.56064-13.79328 0.01536-27.60192 0.02048-41.3952 0-6.63552-0.02048-8.04864-1.4336-8.05376-8.00256V511.54432 390.97856c0-7.21408 1.46944-8.66816 8.7296-8.67328 13.53728-0.01024 27.0592-0.02048 40.59648 0 6.8608 0.01536 8.65792 1.75616 8.65792 8.51456 0.02048 80.37376 0.02048 160.75264 0 241.13664z" fill="#6AC60A" p-id="3982"></path></svg>