<?xml version="1.0" standalone="no"?><!DOCTYPE svg PUBLIC "-//W3C//DTD SVG 1.1//EN" "http://www.w3.org/Graphics/SVG/1.1/DTD/svg11.dtd"><svg t="1712816725443" class="icon" viewBox="0 0 1024 1024" version="1.1" xmlns="http://www.w3.org/2000/svg" p-id="5198" xmlns:xlink="http://www.w3.org/1999/xlink" width="200" height="200"><path d="M512 331.41248c-99.73248 0-180.5824 80.86016-180.57216 180.59264 0.00512 99.7376 80.86016 180.5824 180.59776 180.57216 99.72736-0.00512 180.57728-80.8448 180.57728-180.5824-0.10752-99.69152-80.90624-180.47488-180.60288-180.5824z m0 289.2032c-59.9808-0.02048-108.60544-48.64512-108.5952-108.62592 0.00512-59.98592 48.64-108.60544 108.6208-108.60032 59.97568 0.00512 108.5952 48.62976 108.5952 108.61056-0.05632 59.96544-48.65536 108.56448-108.6208 108.61568zM699.99616 275.8144c-26.624 0-48.19968 21.57056-48.22528 48.19456 0 26.624 21.5808 48.20992 48.19456 48.21504 26.62912 0 48.21504-21.57056 48.21504-48.19968v-0.00512c0.00512-26.61888-21.57056-48.19456-48.18432-48.2048z" fill="#FC0165" p-id="5199"></path><path d="M849.92 51.2H174.08c-67.8656 0-122.88 55.0144-122.88 122.88v675.84c0 67.8656 55.0144 122.88 122.88 122.88h675.84c67.8656 0 122.88-55.0144 122.88-122.88V174.08c0-67.8656-55.0144-122.88-122.88-122.88z m-30.71488 652.63104c-0.08192 63.68256-51.68128 115.29728-115.3536 115.3792H320.16896c-63.68768-0.08704-115.29216-51.69664-115.36384-115.3792V320.16896c0.07168-63.68768 51.68128-115.3024 115.36384-115.37408h383.68256c63.67744 0.08192 115.2768 51.69664 115.3536 115.37408v383.66208z" fill="#FC0165" p-id="5200"></path></svg>