<?xml version="1.0" standalone="no"?><!DOCTYPE svg PUBLIC "-//W3C//DTD SVG 1.1//EN" "http://www.w3.org/Graphics/SVG/1.1/DTD/svg11.dtd"><svg t="1712816654641" class="icon" viewBox="0 0 1024 1024" version="1.1" xmlns="http://www.w3.org/2000/svg" p-id="4283" xmlns:xlink="http://www.w3.org/1999/xlink" width="200" height="200"><path d="M849.92 51.2H174.08c-67.8656 0-122.88 55.0144-122.88 122.88v675.84c0 67.8656 55.0144 122.88 122.88 122.88h675.84c67.8656 0 122.88-55.0144 122.88-122.88V174.08c0-67.8656-55.0144-122.88-122.88-122.88z m-337.92 768c-169.39008 0-307.2-137.80992-307.2-307.2s137.80992-307.2 307.2-307.2 307.2 137.80992 307.2 307.2-137.80992 307.2-307.2 307.2z" fill="#3D8BFA" p-id="4284"></path><path d="M512 235.52c-152.45312 0-276.48 124.02688-276.48 276.48s124.02688 276.48 276.48 276.48 276.48-124.032 276.48-276.48-124.02688-276.48-276.48-276.48z m43.008 294.4l103.424 132.61824h-94.208L485.376 549.376c-13.17376-19.968-16.65024-35.29728-16.10752-46.49472l-14.84288 159.65696h-70.656l27.70944-297.984h70.656l-12.5184 134.63552c1.90976-14.06464 10.1632-20.46976 10.1632-20.46976l114.1504-114.16576h87.04S581.63712 464.896 559.616 486.912s-4.608 43.008-4.608 43.008z" fill="#3D8BFA" p-id="4285"></path></svg>