<?xml version="1.0" standalone="no"?><!DOCTYPE svg PUBLIC "-//W3C//DTD SVG 1.1//EN" "http://www.w3.org/Graphics/SVG/1.1/DTD/svg11.dtd"><svg t="1712816510608" class="icon" viewBox="0 0 1024 1024" version="1.1" xmlns="http://www.w3.org/2000/svg" p-id="2150" xmlns:xlink="http://www.w3.org/1999/xlink" width="200" height="200"><path d="M849.92 51.2H174.08c-67.8656 0-122.88 55.0144-122.88 122.88v675.84c0 67.8656 55.0144 122.88 122.88 122.88h675.84c67.8656 0 122.88-55.0144 122.88-122.88V174.08c0-67.8656-55.0144-122.88-122.88-122.88zM332.8 819.2H204.8V384h128v435.2zM268.416 332.8h-0.7168C229.504 332.8 204.8 304.3328 204.8 268.7744 204.8 232.448 230.272 204.8 269.1584 204.8c38.9376 0 62.9248 27.648 63.6416 63.9744C332.8 304.3072 308.096 332.8 268.416 332.8zM691.2 819.2v-232.9344c0-56.26368-31.36-94.6688-81.7152-94.6688-38.4256 0-59.2128 25.9072-69.2992 50.944-3.6864 8.96-2.5856 33.7408-2.5856 46.2592v230.4h-128V384h128v66.9696c18.4576-28.5696 47.36-66.9696 121.28768-66.9696 91.60192 0 160.28672 57.6 160.28672 186.2144L819.2 819.2h-128z" fill="#0288D1" p-id="2151"></path></svg>