<?xml version="1.0" standalone="no"?><!DOCTYPE svg PUBLIC "-//W3C//DTD SVG 1.1//EN" "http://www.w3.org/Graphics/SVG/1.1/DTD/svg11.dtd"><svg t="1712816667231" class="icon" viewBox="0 0 1024 1024" version="1.1" xmlns="http://www.w3.org/2000/svg" p-id="4435" xmlns:xlink="http://www.w3.org/1999/xlink" width="200" height="200"><path d="M512 289.14688C389.11488 289.14688 289.152 389.12 289.152 512S389.11488 734.848 512 734.848h222.848V512c0-122.88-99.968-222.85312-222.848-222.85312z m-40.89344 240.90624a45.36832 45.36832 0 0 1-90.73664 0V477.01504a45.36832 45.36832 0 0 1 90.73664 0v53.03808z m161.024 0a45.3632 45.3632 0 0 1-90.73152 0V477.01504a45.3632 45.3632 0 1 1 90.73152 0v53.03808z" fill="#4B93FF" p-id="4436"></path><path d="M849.92 51.2H174.08c-67.8656 0-122.88 55.0144-122.88 122.88v675.84c0 67.8656 55.0144 122.88 122.88 122.88h675.84c67.8656 0 122.88-55.0144 122.88-122.88V174.08c0-67.8656-55.0144-122.88-122.88-122.88z m-30.72 683.648h-84.352V819.2H512c-169.3952 0-307.2-137.80992-307.2-307.2s137.8048-307.2 307.2-307.2c169.39008 0 307.2 137.80992 307.2 307.2v222.848z" fill="#4B93FF" p-id="4437"></path></svg>