<?xml version="1.0" standalone="no"?><!DOCTYPE svg PUBLIC "-//W3C//DTD SVG 1.1//EN" "http://www.w3.org/Graphics/SVG/1.1/DTD/svg11.dtd"><svg t="1712816754703" class="icon" viewBox="0 0 1024 1024" version="1.1" xmlns="http://www.w3.org/2000/svg" p-id="5660" xmlns:xlink="http://www.w3.org/1999/xlink" width="200" height="200"><path d="M849.92 51.2H174.08c-67.8656 0-122.88 55.0144-122.88 122.88v675.84c0 67.8656 55.0144 122.88 122.88 122.88h675.84c67.8656 0 122.88-55.0144 122.88-122.88V174.08c0-67.8656-55.0144-122.88-122.88-122.88z m-291.50208 618.73152c-39.296 0-76.22656-20.42368-88.85248-44.52864 0 0-19.456 74.02496-24.18176 92.17024-8.7552 33.65376-32.3584 75.87328-48.19968 101.632-9.04192-2.80064-17.79712-6.23104-26.5472-9.65632-3.36384-30.6688-6.41024-77.56288 1.39264-110.94528 7.03488-30.25408 45.4656-192.75264 45.4656-192.75264s-11.60704-23.23456-11.60704-57.54368c0-53.93408 31.25248-94.16192 70.15936-94.16192 33.09568 0 49.03936 24.85248 49.03936 54.61504 0 33.29536-21.15072 83.01568-32.11264 129.09056-9.1392 38.6048 19.35872 70.09792 57.41056 70.09792 68.9152 0 121.89696-72.68352 121.89696-177.55648 0-92.83584-66.69824-157.76256-161.94048-157.76256-110.31552 0-175.0784 82.75968-175.0784 168.28416 0 33.3056 12.83072 69.04832 28.87168 88.4992 3.15904 3.83488 3.6096 7.20896 2.67776 11.10528-2.93376 12.2368-9.472 38.58432-10.76736 43.9808-1.68448 7.10656-5.62688 8.58112-12.95872 5.1712-48.44032-22.53824-78.71488-93.33248-78.71488-150.2208C264.38144 317.14816 353.2288 204.8 520.58624 204.8c134.53312 0 239.03744 95.83616 239.03744 223.95904-0.00512 133.632-84.2752 241.17248-201.20576 241.17248z" fill="#E60023" p-id="5661"></path></svg>