<?xml version="1.0" standalone="no"?><!DOCTYPE svg PUBLIC "-//W3C//DTD SVG 1.1//EN" "http://www.w3.org/Graphics/SVG/1.1/DTD/svg11.dtd"><svg t="1712816676648" class="icon" viewBox="0 0 1024 1024" version="1.1" xmlns="http://www.w3.org/2000/svg" p-id="4587" xmlns:xlink="http://www.w3.org/1999/xlink" width="200" height="200"><path d="M849.92 51.2H174.08c-67.8656 0-122.88 55.0144-122.88 122.88v675.84c0 67.8656 55.0144 122.88 122.88 122.88h675.84c67.8656 0 122.88-55.0144 122.88-122.88V174.08c0-67.8656-55.0144-122.88-122.88-122.88z m-337.92 768c-169.66144 0-307.2-137.53856-307.2-307.2s137.54368-307.2 307.2-307.2a306.176 306.176 0 0 1 120.83712 24.71424c-16.06656 13.6192-69.41696 47.5904-196.99712 41.2416 0 0-28.7488 0.72192-14.37696 26.59328l138.76736 242.47808a152.7808 152.7808 0 0 0-30.96576-3.16416c-72.23808 0-130.79552 49.87392-130.79552 111.39584 0 61.5168 58.56256 111.39072 130.79552 111.39072 72.23296 0 130.79552-49.87392 130.79552-111.39072 0-27.34592-11.58656-52.37248-30.77632-71.7568l0.01536-0.00512-105.7792-183.72608s-6.17472-8.98048 4.45952-14.37184c9.4464-4.7872 86.99904-33.47968 136.96512-132.57216L682.70592 204.8s4.72064 24.15616 5.60128 55.73632C767.4368 316.09856 819.2 407.97184 819.2 512c0 169.66144-137.53856 307.2-307.2 307.2z" fill="#26CEAA" p-id="4588"></path></svg>