<?xml version="1.0" standalone="no"?><!DOCTYPE svg PUBLIC "-//W3C//DTD SVG 1.1//EN" "http://www.w3.org/Graphics/SVG/1.1/DTD/svg11.dtd"><svg t="1712816557869" class="icon" viewBox="0 0 1024 1024" version="1.1" xmlns="http://www.w3.org/2000/svg" p-id="2911" xmlns:xlink="http://www.w3.org/1999/xlink" width="200" height="200"><path d="M438.00064 452.67456c-101.69344 10.14784-178.82112 72.89344-172.21632 140.17024 6.60992 67.27168 94.40256 113.60256 196.11136 103.5008 101.73952-10.14784 178.82112-72.89344 172.23168-140.20096-6.59456-67.25632-94.3872-113.5872-196.12672-103.47008z m89.24672 158.68416c-20.7616 47.31904-80.45568 72.54016-131.11296 56.07936-48.90112-15.91808-69.60128-64.55808-48.18944-108.38528 21.02272-42.97216 75.7248-67.2768 124.11904-54.58944 50.08896 13.04064 75.65824 60.65152 55.18336 106.89536z" fill="#F44336" p-id="2912"></path><path d="M849.92 51.2H174.08c-67.8656 0-122.88 55.0144-122.88 122.88v675.84c0 67.8656 55.0144 122.88 122.88 122.88h675.84c67.8656 0 122.88-55.0144 122.88-122.88V174.08c0-67.8656-55.0144-122.88-122.88-122.88zM462.54592 741.41184C335.09376 741.41184 204.8 679.16288 204.8 576.77824c0-53.504 33.64352-115.40992 91.60704-173.79328 77.3888-77.96736 167.63904-113.48992 201.5744-79.27808 14.98112 15.09376 16.41984 41.18528 6.79936 72.36096-5.02272 15.6928 14.62784 6.99904 14.62784 7.02976 62.55616-26.37312 117.12512-27.93984 137.0624 0.77312 10.63936 15.32416 9.62048 36.7616-0.18944 61.63456-4.54144 11.45856 1.40288 13.21984 10.05056 15.85664 35.24608 11.00288 74.48064 37.63712 74.48064 84.56192-0.00512 77.66016-111.16032 175.488-278.26688 175.488z m230.76864-325.51424a39.22432 39.22432 0 0 0-8.07424-38.20032 38.63552 38.63552 0 0 0-36.87424-11.99104v-0.01536c-10.91072 2.39104-21.67296-4.66944-24.0128-15.65696-2.34496-11.01824 4.61824-21.87776 15.55968-24.23808 26.7776-5.74464 55.7824 2.61632 75.4176 24.56064 19.68128 21.95968 24.94464 51.85536 16.52736 78.08a20.21376 20.21376 0 0 1-25.49248 13.15328c-10.63424-3.456-16.45056-14.99648-13.02528-25.69216h-0.0256z m118.016 38.39488v0.09728c-4.00384 12.42112-17.29024 19.24608-29.63456 15.22176-12.37504-4.02432-19.1488-17.37728-15.16032-29.83424v-0.01536c12.26752-38.28224 4.49536-81.96096-24.17152-113.98656-28.68736-32.0256-70.9888-44.24704-110.06464-35.8912-12.71808 2.74944-25.22624-5.44256-27.93984-18.2272-2.7136-12.8 5.39648-25.40032 18.0992-28.1344h0.03072c54.93248-11.776 114.4576 5.41696 154.80832 50.4832 40.36608 45.03552 51.24096 106.42432 34.03264 160.28672z" fill="#F44336" p-id="2913"></path><path d="M462.56128 559.104c-6.02624-2.41152-13.58848 0.51712-17.13152 6.49728-3.44064 6.04672-1.55136 12.89728 4.51072 15.40096 6.15936 2.54976 14.02368-0.38912 17.58208-6.528 3.39456-6.16448 1.1776-13.1072-4.96128-15.37024zM423.74144 575.32928c-15.75424-6.64576-36.096 0.18944-45.82912 15.5392-9.82528 15.4368-5.2224 33.79712 10.42432 40.96512 15.872 7.30624 36.92544 0.36864 46.76608-15.45216 9.66656-15.95392 4.57728-34.22208-11.36128-41.05216z" fill="#F44336" p-id="2914"></path></svg>