<?xml version="1.0" standalone="no"?><!DOCTYPE svg PUBLIC "-//W3C//DTD SVG 1.1//EN" "http://www.w3.org/Graphics/SVG/1.1/DTD/svg11.dtd"><svg t="1712816714895" class="icon" viewBox="0 0 1032 1024" version="1.1" xmlns="http://www.w3.org/2000/svg" p-id="5047" xmlns:xlink="http://www.w3.org/1999/xlink" width="201.5625" height="200"><path d="M849.92 51.2H174.08c-67.8656 0-122.88 55.0144-122.88 122.88v675.84c0 67.8656 55.0144 122.88 122.88 122.88h675.84c67.8656 0 122.88-55.0144 122.88-122.88V174.08c0-67.8656-55.0144-122.88-122.88-122.88zM311.31136 284.88704c30.53568 0 55.24992 22.25664 55.24992 49.536 0 27.264-24.71424 49.49504-55.24992 49.49504-30.4896 0-55.19872-22.22592-55.19872-49.49504 0-27.27424 24.71424-49.536 55.19872-49.536z m46.08 297.40544c-14.57152 45.14816-10.95168 28.40576-68.80256 154.07616L204.8 684.11904s93.44-85.04832 112.68096-123.88864c20.29056-41.00608-22.44096-62.84288-22.44096-62.84288l-64.16896-40.00768 34.6624-53.4528c48.42496 35.93728 52.04992 38.95808 84.736 71.67488 25.2416 25.344 22.06208 60.544 7.12192 106.69056z m455.50592 58.64448c-16.33792 153.28256-215.76704 96.35328-215.76704 96.35328l10.81344-43.89888 46.16192 9.94816c85.4784 5.43232 77.13792-69.24288 77.13792-69.24288V417.08544c0.7168-82.37056-77.48096-90.9312-217.78944-40.73984l32.6912 8.82688c-2.87232 9.6512-13.4912 24.65792-26.9824 41.14432h187.72992v37.95968h-105.68192v47.52896h105.22624v37.95968h-105.22112v79.6672c15.70304-5.2736 30.44864-12.3904 43.21792-21.85728l-9.32864-34.75968 49.73056-15.43168 41.27232 101.3248-61.12768 25.41056-10.88-40.3968c-27.2384 20.92544-84.0704 51.14368-183.11168 48.47616-105.89184 2.70848-78.7456-119.38816-78.7456-119.38816l2.70848-1.41824h74.40896c-0.4864 15.7696-6.89664 41.34912 1.90976 55.27552 7.14752 11.42784 25.8048 13.4144 37.67808 13.94688 1.32096 0.1792 2.7392 0.1792 4.12672 0.2304v-91.07968H405.0944v-37.95968h107.9808v-47.53408h-27.7248c-24.30464 25.7792-46.4384 47.11936-46.4384 47.11936l-32.5888-28.50304c23.14752-24.34048 46.30528-62.85312 60.54912-88.66304a1370.25536 1370.25536 0 0 0-35.88608 15.22688 554.7264 554.7264 0 0 1-41.28256 46.29504c0.56832 0.86016-53.24288-30.14656-53.24288-30.14656 55.61856-47.5136 86.8096-149.22752 86.8096-149.22752l77.4144 21.62688s-6.50752 15.08864-19.6352 38.11328c309.74976-87.7056 327.72096 53.77024 327.72096 53.77024s20.40832 97.72544 4.12672 251.05408z" fill="#FF5000" p-id="5048"></path></svg>