<?xml version="1.0" standalone="no"?><!DOCTYPE svg PUBLIC "-//W3C//DTD SVG 1.1//EN" "http://www.w3.org/Graphics/SVG/1.1/DTD/svg11.dtd"><svg t="1712816488220" class="icon" viewBox="0 0 1024 1024" version="1.1" xmlns="http://www.w3.org/2000/svg" p-id="1845" xmlns:xlink="http://www.w3.org/1999/xlink" width="200" height="200"><path d="M849.92 51.2H174.08c-67.8656 0-122.88 55.0144-122.88 122.88v675.84c0 67.8656 55.0144 122.88 122.88 122.88h675.84c67.8656 0 122.88-55.0144 122.88-122.88V174.08c0-67.8656-55.0144-122.88-122.88-122.88z m-150.7584 724.07552c-2.21696 1.82784-51.4816 43.92448-164.74624 43.92448-135.808 0-139.71968-151.4496-139.71968-168.6528V459.60704H329.92256a7.7312 7.7312 0 0 1-7.69024-7.81824V383.74912c0-3.25632 1.95584-6.12352 4.95104-7.296 1.17248-0.52224 122.6496-49.26976 122.6496-163.83488 0-4.3008 3.38944-7.81824 7.69024-7.81824h76.89728c4.30592 0 7.81824 3.52256 7.81824 7.81824v144.41472h125.51168c4.43392 0 7.81824 3.51744 7.81824 7.81824v92.8c0 4.3008-3.38432 7.81824-7.81824 7.81824h-125.51168v182.08256c0 2.34496 0.91648 59.03872 58.91584 59.03872 47.96416 0 88.23296-24.76544 88.6272-25.02656 2.35008-1.5616 5.4784-1.5616 7.95136-0.12288 2.47808 1.30048 3.9168 3.91168 3.9168 6.77376v81.19808h0.12288c-0.01024 2.21184-1.0496 4.3008-2.6112 5.8624z" fill="#35465E" p-id="1846"></path></svg>