<?xml version="1.0" standalone="no"?><!DOCTYPE svg PUBLIC "-//W3C//DTD SVG 1.1//EN" "http://www.w3.org/Graphics/SVG/1.1/DTD/svg11.dtd"><svg t="1712816499399" class="icon" viewBox="0 0 1024 1024" version="1.1" xmlns="http://www.w3.org/2000/svg" p-id="1996" xmlns:xlink="http://www.w3.org/1999/xlink" width="200" height="200"><path d="M620.9024 501.20704l-158.51008-105.6768c-8.64256-5.76512-20.20864 0.43008-20.20864 10.80832v211.33312c0 10.38848 11.56608 16.58368 20.20864 10.82368l158.51008-105.68192c7.71072-5.13024 7.71072-16.46592 0-21.6064z" fill="#FF0000" p-id="1997"></path><path d="M849.92 51.2H174.08c-67.8656 0-122.88 55.0144-122.88 122.88v675.84c0 67.8656 55.0144 122.88 122.88 122.88h675.84c67.8656 0 122.88-55.0144 122.88-122.88V174.08c0-67.8656-55.0144-122.88-122.88-122.88z m-44.51328 608.26112c-6.12352 31.27296-32.16896 55.11168-64.33792 59.58656-50.56 7.41888-134.84032 16.36352-229.82656 16.36352-93.46048 0-177.73568-8.94464-229.83168-16.36352-32.18432-4.47488-58.23488-28.30848-64.34816-59.58656C210.93376 625.19808 204.8 574.56128 204.8 512c0-62.55616 6.12864-113.19808 12.25216-147.456 6.13376-31.27296 32.17408-55.11168 64.35328-59.58656 50.56512-7.43424 134.8352-16.37376 229.82656-16.37376 94.99136 0 177.72032 8.93952 229.82656 16.37376 32.17408 4.47488 58.22976 28.3136 64.33792 59.58656C811.53536 398.80192 819.2 449.44384 819.2 512c-1.52064 62.56128-7.65952 113.19808-13.79328 147.46112z" fill="#FF0000" p-id="1998"></path></svg>